<?xml version="1.0" standalone="no"?>
<!DOCTYPE svg PUBLIC "-//W3C//DTD SVG 20010904//EN"
 "http://www.w3.org/TR/2001/REC-SVG-20010904/DTD/svg10.dtd">
<svg version="1.0" xmlns="http://www.w3.org/2000/svg"
 width="752.000000pt" height="864.000000pt" viewBox="0 0 752.000000 864.000000"
 preserveAspectRatio="xMidYMid meet">
<metadata>
Created by potrace 1.15, written by Peter Selinger 2001-2017
</metadata>
<g transform="translate(0.000000,864.000000) scale(0.100000,-0.100000)"
fill="#000000" stroke="none">
<path d="M980 8590 c0 -48 61 -120 101 -120 11 0 22 -13 30 -37 11 -33 10 -38
-7 -48 -26 -14 -80 -67 -85 -83 -3 -9 -13 -11 -30 -7 -23 6 -27 12 -27 51 -3
110 -109 192 -214 163 -54 -14 -112 -72 -128 -126 -37 -122 91 -250 213 -213
26 7 58 29 83 55 54 56 85 53 101 -8 32 -119 191 -146 253 -44 26 42 26 110 0
152 -20 32 -72 65 -104 65 -12 0 -16 10 -16 38 0 34 3 39 34 50 36 13 69 56
81 105 l7 27 -146 0 c-141 0 -146 -1 -146 -20z"/>
<path d="M1741 8588 c-58 -39 -76 -72 -76 -137 0 -48 5 -64 29 -95 94 -124
287 -61 289 93 1 92 -56 152 -150 159 -48 3 -64 0 -92 -20z"/>
<path d="M2197 8581 c-37 -64 -13 -147 53 -181 48 -25 64 -25 116 -1 51 23 79
75 71 133 -9 68 -26 78 -131 78 -91 0 -92 0 -109 -29z"/>
<path d="M5270 8578 c-64 -105 54 -235 165 -182 68 32 95 116 60 184 l-16 30
-94 0 -95 0 -20 -32z"/>
<path d="M5780 8595 c0 -9 -10 -19 -22 -24 -54 -21 -94 -93 -83 -151 19 -99
118 -147 210 -100 36 18 42 19 82 5 54 -19 136 -19 188 0 21 8 39 13 40 12 0
-1 17 -21 39 -44 l39 -42 -22 -27 c-15 -19 -21 -41 -21 -75 0 -42 5 -55 33
-85 61 -67 172 -53 206 28 16 39 31 45 79 32 20 -6 22 -13 22 -68 0 -156 117
-270 275 -271 59 0 78 5 123 30 234 129 165 475 -101 511 -97 14 -232 -60
-267 -146 -13 -32 -26 -35 -80 -20 -28 8 -39 18 -48 44 -18 50 -69 79 -130 74
-45 -3 -51 0 -80 33 -18 20 -32 41 -32 46 0 5 14 22 31 39 42 39 79 119 79
172 l0 42 -280 0 c-244 0 -280 -2 -280 -15z"/>
<path d="M1434 8544 c-20 -19 -24 -31 -20 -52 16 -64 91 -81 129 -30 17 23 18
31 8 56 -12 29 -47 52 -77 52 -8 0 -26 -11 -40 -26z"/>
<path d="M2400 8312 c-23 -11 -42 -32 -55 -59 -19 -40 -22 -41 -78 -48 -59 -7
-59 -7 -89 29 -18 22 -43 39 -69 46 -79 22 -159 -42 -159 -127 0 -42 36 -93
79 -111 37 -16 39 -20 45 -72 4 -30 9 -71 12 -91 6 -33 4 -37 -26 -49 -46 -19
-80 -75 -80 -130 0 -166 236 -211 295 -56 24 62 14 110 -34 158 -27 26 -50 39
-78 44 l-41 6 -7 67 c-3 36 -9 76 -12 88 -4 18 1 25 20 32 36 14 66 49 77 92
10 36 11 37 68 42 46 4 59 2 67 -11 6 -9 23 -29 39 -44 23 -23 37 -28 78 -28
44 0 54 4 84 34 29 29 34 41 34 79 0 50 -24 88 -70 112 -37 19 -57 19 -100 -3z"/>
<path d="M5473 8315 c-60 -26 -87 -98 -58 -159 32 -68 126 -89 183 -41 35 29
42 31 42 9 0 -25 65 -84 93 -84 19 0 27 -7 32 -27 8 -34 32 -62 63 -74 23 -9
23 -9 -11 -39 -44 -38 -53 -38 -61 4 -14 76 -86 125 -156 106 -78 -21 -113
-106 -75 -180 32 -62 129 -80 183 -35 17 14 32 25 34 25 2 0 4 -30 4 -67 -1
-57 4 -76 27 -115 37 -64 100 -101 170 -100 68 1 104 15 150 60 123 119 50
328 -121 349 -51 6 -52 6 -35 25 39 43 14 127 -44 149 -17 6 -23 17 -23 41 0
50 -32 95 -79 109 -47 14 -81 7 -118 -25 l-27 -24 -17 37 c-11 25 -29 43 -52
54 -42 20 -62 21 -104 2z"/>
<path d="M5113 8279 c-39 -12 -80 -59 -89 -103 -7 -41 18 -100 51 -122 57 -37
146 -22 180 30 66 100 -28 229 -142 195z"/>
<path d="M5954 8280 c-26 -10 -54 -48 -54 -72 0 -34 24 -68 57 -80 19 -7 33
-19 33 -28 0 -24 43 -60 71 -60 69 0 96 80 40 121 -18 13 -32 34 -36 56 -4 24
-16 40 -38 53 -35 22 -42 23 -73 10z"/>
<path d="M280 8273 c-8 -3 -26 -15 -38 -27 -94 -85 -53 -233 71 -253 116 -18
207 124 142 224 -33 50 -117 77 -175 56z"/>
<path d="M1693 8224 c-113 -56 -74 -224 52 -224 127 0 165 170 50 224 -41 20
-61 20 -102 0z"/>
<path d="M4764 8221 c-46 -28 -64 -60 -64 -109 0 -37 6 -50 34 -78 30 -30 40
-34 84 -34 153 0 162 213 11 236 -23 3 -44 -1 -65 -15z"/>
<path d="M622 8017 c-30 -32 -28 -71 4 -96 15 -12 34 -21 44 -21 31 0 70 39
70 71 0 62 -75 92 -118 46z"/>
<path d="M2515 8006 c-62 -27 -91 -85 -75 -146 14 -53 60 -90 111 -90 l40 0
-3 123 c-3 113 -4 122 -23 124 -11 2 -33 -3 -50 -11z"/>
<path d="M884 7921 c-62 -28 -89 -73 -89 -147 0 -51 4 -66 27 -96 39 -52 105
-75 165 -60 43 12 45 12 70 -18 53 -63 133 -78 205 -38 115 65 110 231 -8 288
-45 22 -89 25 -130 10 -25 -10 -30 -8 -51 18 -24 31 -88 62 -126 62 -12 0 -40
-9 -63 -19z"/>
<path d="M414 7899 c-39 -11 -83 -54 -90 -88 -3 -14 -12 -46 -20 -70 -8 -25
-14 -58 -14 -75 0 -37 30 -105 56 -128 28 -25 88 -48 124 -48 23 0 30 -4 30
-20 0 -14 7 -20 21 -20 17 0 20 5 17 25 -4 20 1 29 28 46 19 11 38 28 43 36 5
9 15 14 24 10 12 -4 14 -15 10 -40 -5 -36 13 -83 41 -106 25 -21 19 -39 -21
-76 -55 -51 -93 -48 -147 9 -51 54 -96 66 -151 40 -70 -33 -95 -116 -55 -181
22 -36 66 -63 105 -63 58 0 125 59 125 110 0 26 3 28 45 32 39 3 50 -1 70 -22
31 -32 32 -57 3 -87 -46 -50 -10 -133 59 -133 44 0 83 37 83 80 0 38 -39 80
-73 80 -30 0 -43 43 -20 62 11 9 13 23 9 50 -8 47 7 78 32 71 11 -2 35 2 54
10 35 15 37 14 61 -11 23 -24 24 -29 11 -46 -23 -32 -18 -93 10 -121 34 -34
68 -40 109 -20 62 29 75 95 28 147 -24 27 -36 33 -69 32 -32 -1 -46 4 -67 26
-22 23 -25 31 -16 48 20 38 13 98 -15 131 -44 52 -108 59 -167 18 -16 -10 -31
-16 -35 -12 -4 4 -7 35 -7 69 0 53 -5 70 -30 106 -17 24 -40 57 -52 75 -31 46
-96 69 -149 54z"/>
<path d="M6291 7886 c-48 -27 -66 -100 -35 -144 20 -29 71 -55 95 -49 13 4 25
-5 40 -30 l22 -35 -22 -42 c-25 -51 -26 -74 -6 -122 l15 -36 -82 -89 c-68 -74
-85 -88 -102 -82 -12 4 -39 7 -61 6 -32 -1 -46 -8 -72 -37 -27 -30 -33 -44
-33 -82 0 -39 5 -51 34 -80 28 -28 42 -34 75 -34 57 0 95 22 116 67 15 31 16
44 7 77 -12 46 -15 41 89 155 59 64 69 72 87 62 48 -26 121 -5 161 45 32 41
36 85 12 138 -17 38 -29 50 -67 68 -39 17 -53 18 -80 10 -32 -9 -35 -8 -54 23
l-21 33 22 41 c18 35 19 45 9 76 -22 65 -90 94 -149 61z"/>
<path d="M5145 7836 c-16 -7 -41 -25 -54 -40 -23 -24 -31 -26 -104 -26 -78 0
-81 1 -114 35 -28 29 -41 35 -77 35 -83 0 -136 -80 -101 -153 43 -92 167 -83
204 16 10 26 13 27 81 27 l70 0 0 -29 c0 -16 3 -37 7 -47 6 -17 5 -17 -17 -1
-32 22 -56 21 -80 -3 -39 -39 -14 -100 43 -100 33 0 57 24 57 58 l1 27 20 -28
c29 -39 70 -57 126 -57 159 0 212 204 73 277 -49 26 -91 29 -135 9z"/>
<path d="M1651 7814 c-57 -47 -50 -137 13 -175 37 -23 67 -24 106 -4 40 21 60
53 60 98 0 31 -7 46 -34 73 -44 44 -99 47 -145 8z"/>
<path d="M4326 7666 c-36 -63 -66 -118 -66 -122 0 -4 14 -4 31 0 77 15 135 95
126 174 -9 78 -20 71 -91 -52z"/>
<path d="M2422 7627 c-44 -46 -18 -117 42 -117 33 0 76 41 76 73 0 30 -39 67
-71 67 -14 0 -35 -10 -47 -23z"/>
<path d="M5377 7578 c-29 -23 -39 -66 -23 -101 8 -18 17 -49 20 -69 9 -52 54
-88 110 -88 54 0 91 28 107 80 10 32 9 44 -7 76 -11 21 -32 46 -48 54 -16 8
-39 25 -52 38 -26 25 -80 30 -107 10z"/>
<path d="M1464 7563 c-12 -2 -34 -17 -50 -34 -22 -23 -29 -40 -29 -74 -1 -30
-9 -53 -26 -75 -22 -29 -27 -31 -52 -21 -54 21 -96 14 -132 -22 -42 -42 -52
-77 -33 -125 26 -68 104 -100 167 -68 42 22 61 58 61 116 0 41 17 97 35 118 2
2 15 -4 29 -13 33 -22 89 -22 122 0 26 17 27 16 57 -14 29 -29 31 -35 31 -110
1 -71 4 -83 31 -122 124 -176 407 -70 382 143 -11 89 -70 156 -160 179 -58 16
-124 2 -175 -38 l-34 -25 -35 29 c-39 31 -46 41 -59 87 -15 48 -76 80 -130 69z"/>
<path d="M4523 7556 c-17 -8 -39 -26 -48 -40 -17 -25 -23 -85 -11 -104 3 -5
-10 -22 -29 -36 -29 -23 -38 -25 -56 -15 -13 6 -42 9 -68 6 -63 -7 -101 -49
-101 -113 0 -141 183 -171 230 -37 13 38 12 46 -3 79 -10 20 -17 37 -15 38 2
0 15 12 30 25 22 19 30 22 42 12 43 -35 108 -31 152 10 20 19 20 19 53 -15 31
-32 33 -37 22 -67 -45 -129 60 -269 202 -269 69 0 132 32 172 88 39 57 47 149
17 209 -37 71 -115 123 -187 123 -36 0 -92 -20 -130 -46 l-38 -25 -35 25 c-24
17 -40 40 -51 72 -25 74 -86 107 -148 80z"/>
<path d="M2228 7420 c-43 -23 -75 -71 -83 -125 -5 -31 -1 -51 17 -85 31 -61
77 -90 143 -90 37 0 62 6 86 23 37 24 79 97 79 137 0 14 -10 46 -22 70 -41 81
-139 112 -220 70z"/>
<path d="M5941 7416 c-55 -30 -65 -90 -22 -138 22 -25 36 -32 66 -32 30 0 44
7 66 32 33 37 36 60 14 103 -24 46 -77 61 -124 35z"/>
<path d="M5579 7331 c-16 -16 -29 -37 -29 -46 0 -24 27 -72 45 -79 80 -30 151
37 113 107 -29 55 -84 63 -129 18z"/>
<path d="M6692 7349 c-70 -20 -142 -122 -142 -200 0 -34 19 -99 29 -99 5 0 49
70 99 155 98 167 98 168 14 144z"/>
<path d="M5268 7244 c-78 -42 -76 -178 2 -219 42 -22 102 -19 134 6 25 19 29
20 69 6 26 -9 41 -20 39 -28 -11 -43 -14 -82 -8 -114 8 -40 55 -99 97 -121 41
-20 127 -18 165 5 71 44 110 139 86 210 -11 30 -10 31 20 31 47 0 88 43 88 93
0 72 -78 120 -141 87 -22 -12 -49 -60 -49 -88 0 -19 -2 -19 -42 -5 -23 8 -52
12 -63 9 -15 -4 -28 1 -40 14 -10 11 -24 20 -31 20 -23 0 -46 -32 -41 -57 6
-32 -3 -35 -54 -18 l-44 15 0 51 c0 46 -4 54 -37 85 -31 28 -45 34 -80 34 -24
-1 -55 -7 -70 -16z"/>
<path d="M1035 7151 c-51 -21 -73 -76 -50 -125 38 -80 149 -69 170 17 10 37
-12 85 -46 102 -31 17 -45 18 -74 6z"/>
<path d="M4104 7150 c-32 -13 -54 -50 -54 -88 0 -45 46 -92 90 -92 45 0 90 47
90 94 0 64 -69 111 -126 86z"/>
<path d="M2540 7103 c-134 -51 -147 -258 -20 -323 72 -37 70 -41 70 155 0 187
0 187 -50 168z"/>
<path d="M540 7093 c-57 -17 -90 -56 -90 -105 0 -13 -7 -32 -15 -42 -19 -25
-19 -66 -1 -91 13 -19 12 -20 -30 -16 -40 3 -48 -1 -84 -37 -33 -33 -40 -46
-40 -78 0 -51 18 -83 59 -111 63 -43 141 -19 173 54 21 48 14 98 -18 134 -16
18 -16 19 13 19 18 0 38 9 49 21 10 12 35 29 54 39 58 30 81 102 51 159 -20
36 -85 66 -121 54z"/>
<path d="M30 6914 l0 -146 33 20 c17 12 43 41 55 66 33 62 24 117 -28 168 -21
21 -43 38 -49 38 -8 0 -11 -45 -11 -146z"/>
<path d="M6353 7035 c-31 -13 -63 -59 -63 -90 0 -12 -8 -10 -40 11 -34 23 -48
26 -98 22 -36 -2 -68 -11 -84 -23 -26 -20 -68 -83 -68 -103 0 -6 -13 -24 -30
-40 -16 -17 -35 -50 -41 -74 -11 -40 -15 -44 -39 -40 -82 12 -118 -93 -43
-127 33 -15 47 -14 74 8 23 18 24 18 59 -11 92 -73 231 -33 262 75 6 23 21 53
33 67 34 38 45 65 45 110 0 41 0 41 22 26 29 -20 87 -20 116 0 12 8 29 28 37
44 30 59 13 115 -45 145 -35 18 -55 18 -97 0z"/>
<path d="M1512 6985 c-61 -52 -76 -107 -45 -172 49 -105 207 -96 249 13 34 89
-21 174 -119 182 -47 4 -57 1 -85 -23z"/>
<path d="M4593 6990 c-58 -35 -82 -98 -59 -160 11 -31 10 -40 -10 -81 -19 -39
-29 -48 -58 -53 -97 -18 -104 -161 -10 -196 22 -9 24 -15 24 -67 0 -58 0 -58
-39 -74 -47 -20 -74 -65 -73 -123 1 -48 26 -85 76 -110 97 -48 211 53 177 157
-14 41 -63 87 -92 87 -16 0 -19 7 -19 44 0 24 -3 51 -6 60 -4 11 2 19 19 25
39 15 67 58 67 103 0 32 -6 46 -32 70 l-32 30 19 34 c20 38 22 39 49 19 26
-20 99 -19 137 0 62 33 86 112 53 181 -33 68 -125 95 -191 54z"/>
<path d="M2040 6957 c-34 -17 -70 -74 -70 -111 0 -73 76 -135 148 -121 46 8
89 52 98 100 18 95 -89 176 -176 132z"/>
<path d="M5102 6950 c-68 -42 -78 -133 -21 -189 77 -78 196 -33 207 78 4 45 1
52 -30 86 -43 48 -105 58 -156 25z"/>
<path d="M959 6857 c-92 -34 -144 -109 -143 -204 2 -130 139 -232 260 -193 54
17 100 54 126 100 21 36 27 40 63 40 38 0 42 -3 54 -36 7 -21 25 -43 42 -53
16 -9 31 -27 33 -41 20 -97 19 -100 -4 -100 -12 0 -38 -16 -57 -35 -29 -29
-42 -35 -77 -35 -34 0 -47 6 -68 30 -18 21 -35 30 -57 30 -66 0 -96 -79 -45
-119 36 -28 60 -26 95 8 24 25 34 28 67 24 36 -5 38 -7 50 -56 13 -55 11 -59
-40 -120 -22 -26 -25 -27 -63 -16 -55 15 -152 6 -202 -19 -169 -87 -208 -327
-74 -456 l30 -29 -26 -34 c-33 -42 -37 -116 -9 -157 39 -60 124 -83 186 -51
58 30 90 110 67 170 -6 18 -1 22 36 32 68 19 131 74 167 147 29 59 32 72 29
140 l-4 75 163 115 162 115 50 -31 c65 -40 166 -50 237 -23 224 86 233 405 13
504 -59 27 -159 28 -215 2 -56 -25 -101 -66 -133 -120 -23 -40 -27 -57 -27
-126 0 -61 5 -90 21 -122 l21 -43 -164 -106 c-90 -59 -165 -105 -166 -103 -1
3 -19 23 -41 46 l-38 41 32 45 32 45 36 -15 c50 -21 99 -9 139 34 27 28 33 42
33 79 0 60 -22 100 -68 123 -33 17 -40 26 -50 73 -7 29 -9 54 -5 55 31 11 75
47 83 69 18 46 11 75 -24 110 -45 45 -91 46 -139 4 l-34 -29 -46 29 c-29 18
-47 37 -47 48 0 31 -57 100 -100 122 -53 27 -116 33 -161 17z"/>
<path d="M4031 6855 c-115 -36 -176 -177 -122 -284 36 -69 115 -121 186 -121
71 0 150 52 186 121 54 108 -8 249 -125 284 -59 18 -68 18 -125 0z"/>
<path d="M2499 6707 c-19 -13 -38 -36 -43 -53 -7 -22 -21 -36 -50 -50 -110
-51 -116 -207 -11 -258 112 -54 101 -51 128 -33 13 8 34 34 46 57 19 36 21 57
21 200 l0 160 -29 0 c-15 0 -43 -10 -62 -23z"/>
<path d="M583 6660 c-32 -13 -56 -65 -49 -106 10 -51 50 -77 109 -71 53 5 67
-5 44 -31 -29 -32 -25 -85 8 -114 19 -16 22 -25 15 -39 -6 -10 -10 -28 -10
-40 0 -22 0 -22 -29 5 -76 73 -202 37 -233 -66 -23 -77 37 -164 121 -175 72
-10 147 50 153 121 3 31 3 31 35 6 31 -24 92 -26 132 -5 31 15 61 69 61 107 0
36 -36 86 -75 105 -28 13 -35 22 -35 45 0 41 -40 78 -83 78 -37 0 -57 24 -37
44 5 5 10 27 10 49 0 71 -68 115 -137 87z"/>
<path d="M5470 6598 c-130 -67 -93 -254 52 -266 44 -3 59 0 88 20 96 64 90
194 -10 246 -24 12 -54 22 -65 22 -11 0 -41 -10 -65 -22z"/>
<path d="M4887 6585 c-58 -22 -110 -68 -143 -127 -25 -45 -29 -64 -29 -128 0
-65 4 -83 30 -129 28 -51 104 -120 132 -121 7 0 15 -11 19 -25 10 -39 69 -85
110 -85 65 0 124 51 124 107 0 10 17 35 39 56 l38 37 38 -16 c109 -45 215 70
160 176 -11 20 -31 34 -71 50 -32 11 -63 19 -70 16 -7 -3 -19 13 -29 39 -20
53 -77 114 -130 140 -51 25 -166 30 -218 10z"/>
<path d="M249 6516 c-70 -23 -102 -124 -58 -180 19 -24 20 -30 7 -69 -12 -39
-15 -42 -45 -39 -38 4 -100 -23 -114 -49 -5 -11 -9 -52 -7 -91 3 -70 4 -73 37
-95 41 -28 101 -30 142 -6 43 26 55 8 35 -52 -36 -104 36 -205 146 -205 155 0
216 201 87 287 -45 29 -111 33 -159 8 -43 -22 -60 -8 -53 45 7 51 -1 82 -32
118 -24 29 -24 31 -10 66 13 31 18 35 43 30 41 -8 98 19 122 58 59 98 -31 210
-141 174z"/>
<path d="M5938 6430 c-80 -24 -135 -108 -124 -188 3 -25 16 -61 28 -78 37 -53
126 -92 172 -75 11 4 47 56 82 116 58 101 62 111 49 135 -19 35 -54 66 -97 85
-41 16 -68 18 -110 5z"/>
<path d="M3830 6348 c-40 -27 -60 -61 -60 -101 0 -120 170 -163 226 -56 24 48
18 95 -19 135 -43 48 -97 56 -147 22z"/>
<path d="M4152 6337 c-29 -30 -28 -62 3 -92 30 -30 54 -31 89 -4 19 15 26 30
26 54 0 61 -75 88 -118 42z"/>
<path d="M2225 6125 c-22 -8 -41 -15 -42 -15 -2 0 -16 -19 -33 -42 -51 -71
-36 -181 32 -229 92 -66 213 -29 253 76 50 129 -80 258 -210 210z"/>
<path d="M4090 6073 c-64 -23 -142 -105 -165 -172 -37 -112 3 -250 90 -314 62
-45 104 -59 177 -60 231 -1 363 260 226 448 -73 101 -206 140 -328 98z"/>
<path d="M3370 5998 c-24 -40 -49 -83 -56 -95 -21 -33 -18 -40 21 -53 105 -35
196 88 133 180 -37 55 -51 50 -98 -32z"/>
<path d="M5460 6008 c-126 -86 -70 -278 81 -278 51 0 98 26 133 73 46 62 17
175 -54 212 -44 23 -121 19 -160 -7z"/>
<path d="M3587 5936 c-38 -36 -45 -73 -23 -127 4 -9 -2 -27 -14 -42 -19 -23
-24 -25 -43 -15 -12 6 -35 14 -52 18 -16 4 -37 11 -46 14 -21 9 -113 -63 -135
-106 -22 -43 -15 -125 16 -168 25 -36 89 -69 133 -70 15 0 44 7 63 15 35 14
36 14 90 -26 39 -28 54 -45 49 -56 -3 -9 -1 -31 5 -49 32 -95 168 -99 207 -7
37 90 -60 181 -149 139 -33 -16 -36 -16 -84 10 -27 15 -50 28 -51 29 -2 1 7
19 18 41 22 42 21 115 -2 152 -10 16 -8 24 11 50 20 27 30 32 65 32 32 0 47 6
68 28 82 85 -40 218 -126 138z"/>
<path d="M5094 5822 c-54 -43 -59 -114 -14 -166 30 -33 30 -37 24 -101 -5 -52
-10 -65 -23 -64 -36 3 -52 -3 -86 -32 l-35 -31 -52 19 c-45 17 -53 24 -63 59
-18 60 -42 91 -92 115 -78 38 -178 6 -218 -71 -53 -103 28 -240 142 -240 71 0
119 29 158 95 10 17 14 17 67 1 47 -13 56 -20 61 -44 7 -37 50 -78 88 -86 64
-13 129 42 129 109 0 30 -26 85 -40 85 -11 0 -13 37 -4 103 6 41 9 46 39 51
42 8 83 49 91 91 7 38 -14 86 -48 109 -30 21 -98 20 -124 -2z"/>
<path d="M1560 5782 c-42 -21 -80 -75 -80 -114 0 -106 118 -173 207 -118 89
54 80 188 -15 234 -42 21 -69 20 -112 -2z"/>
<path d="M2570 5740 c-8 -4 -28 -12 -45 -16 -16 -5 -40 -25 -53 -44 -30 -44
-26 -109 8 -145 27 -29 88 -51 101 -38 5 5 8 64 7 130 -3 103 -5 119 -18 113z"/>
<path d="M617 5715 c-75 -26 -118 -86 -119 -164 0 -83 52 -149 134 -172 102
-27 214 61 217 172 1 14 -11 48 -25 76 -20 42 -35 57 -77 77 -58 29 -76 31
-130 11z"/>
<path d="M1963 5705 c-60 -26 -87 -98 -58 -159 21 -44 59 -66 116 -66 33 0 47
6 75 34 28 28 34 42 34 75 0 56 -22 95 -64 115 -41 19 -61 20 -103 1z"/>
<path d="M2233 5575 c-29 -20 -46 -75 -34 -107 12 -33 57 -68 87 -68 38 0 71
20 90 55 21 39 14 76 -21 111 -28 28 -88 33 -122 9z"/>
<path d="M5389 5527 c-66 -35 -102 -93 -107 -171 -5 -74 16 -125 72 -174 36
-32 105 -58 117 -44 4 4 49 78 99 165 l92 158 -23 26 c-62 66 -168 83 -250 40z"/>
<path d="M3027 5403 l-56 -98 35 -3 c85 -8 146 94 104 172 -7 14 -17 26 -21
26 -4 0 -32 -44 -62 -97z"/>
<path d="M139 5467 c-69 -46 -87 -139 -40 -205 25 -36 99 -67 135 -58 24 6 25
3 42 -71 16 -75 16 -77 -2 -88 -38 -21 -84 -77 -94 -116 -6 -21 -11 -83 -12
-137 -1 -79 2 -106 19 -143 59 -131 205 -196 348 -155 74 22 153 97 178 170
19 56 22 131 7 172 -14 36 -7 41 25 16 73 -58 167 -30 239 69 50 69 58 107 31
159 -21 40 -57 56 -140 64 -61 6 -76 4 -115 -16 -59 -30 -93 -93 -87 -156 l5
-44 -37 35 c-61 59 -93 70 -267 94 l-42 5 -17 80 c-17 77 -17 81 1 98 18 18
21 18 90 -12 59 -26 72 -36 80 -62 13 -43 52 -63 92 -47 38 16 59 60 43 90
-21 38 -83 55 -109 29 -8 -8 -29 -3 -85 21 l-74 33 4 41 c8 83 -59 157 -142
157 -27 0 -54 -8 -76 -23z"/>
<path d="M1924 5446 c-48 -21 -74 -61 -74 -116 0 -79 69 -139 144 -125 33 7
33 6 66 -70 32 -74 33 -77 17 -105 -9 -15 -17 -47 -17 -70 0 -34 6 -48 34 -76
28 -28 42 -34 75 -34 23 0 55 7 70 15 31 15 61 69 61 107 0 61 -79 126 -139
113 -24 -5 -28 -1 -60 70 l-34 76 18 39 c33 74 7 147 -62 176 -40 17 -59 17
-99 0z"/>
<path d="M2410 5392 c-33 -32 -67 -75 -75 -96 -37 -89 45 -189 144 -174 l28 4
-23 -44 c-45 -85 -23 -201 48 -256 19 -14 40 -26 47 -26 8 0 11 76 11 301 l-1
301 -26 24 c-45 42 -84 33 -153 -34z"/>
<path d="M1535 5335 c-29 -28 -34 -85 -10 -105 8 -7 24 -32 34 -56 56 -126
242 -75 217 60 -7 34 -54 86 -79 86 -7 0 -29 9 -50 20 -49 27 -83 25 -112 -5z"/>
<path d="M3944 5340 c-31 -12 -72 -66 -80 -105 -13 -69 59 -155 130 -155 102
0 170 120 116 207 -33 54 -106 78 -166 53z"/>
<path d="M3148 5274 c-56 -30 -65 -95 -20 -144 22 -25 36 -31 72 -33 42 -2 45
-4 48 -33 2 -19 -3 -36 -12 -44 -25 -20 -20 -86 8 -115 33 -33 67 -40 105 -21
40 21 54 50 48 97 -7 52 16 74 62 58 98 -34 190 71 146 165 -21 44 -59 66
-116 66 -33 0 -47 -6 -75 -34 -27 -27 -34 -42 -34 -75 0 -22 5 -52 12 -66 9
-21 9 -29 -4 -41 -12 -13 -20 -14 -36 -5 -11 6 -34 11 -50 11 -24 0 -31 5 -35
27 -3 15 1 40 9 55 28 54 14 107 -36 133 -36 19 -57 18 -92 -1z"/>
<path d="M4328 5224 c-15 -8 -35 -28 -43 -44 -62 -120 79 -238 179 -149 35 30
35 30 66 13 21 -13 30 -26 30 -45 0 -32 34 -77 68 -90 29 -11 83 3 103 27 7 8
15 31 18 52 6 32 10 37 45 44 34 7 42 5 72 -22 90 -78 225 5 194 120 -35 131
-230 106 -234 -30 -1 -37 -3 -39 -37 -45 -29 -5 -44 -1 -75 20 -42 29 -83 28
-115 -1 -15 -13 -20 -13 -52 2 -29 14 -36 23 -40 58 -12 84 -104 131 -179 90z"/>
<path d="M1763 5120 c-66 -27 -54 -139 16 -155 52 -11 100 27 100 80 0 34 -14
56 -46 73 -25 14 -40 14 -70 2z"/>
<path d="M2940 5113 c-61 -22 -79 -95 -35 -138 50 -51 135 -15 135 58 0 49
-57 95 -100 80z"/>
<path d="M2733 4892 c-35 -60 -63 -114 -63 -120 0 -17 51 -52 76 -52 12 0 35
11 51 24 15 13 43 31 61 40 40 21 66 75 58 121 -8 39 -52 83 -91 90 -29 6 -32
2 -92 -103z"/>
<path d="M1237 4980 c-148 -45 -185 -259 -62 -357 30 -24 35 -34 35 -70 0 -39
-3 -44 -32 -56 -64 -27 -89 -82 -64 -142 27 -64 111 -79 166 -30 15 13 19 12
45 -15 25 -26 27 -33 17 -55 -18 -38 -14 -86 8 -122 39 -65 105 -85 175 -54
107 47 106 202 -1 247 -42 18 -78 18 -112 0 -26 -13 -29 -12 -65 20 -20 19
-37 43 -37 55 0 31 -27 77 -51 84 -18 6 -20 12 -14 43 10 51 10 52 64 52 100
0 189 80 199 178 14 150 -126 265 -271 222z"/>
<path d="M3980 4918 c-69 -47 -92 -116 -67 -199 11 -35 -11 -43 -59 -23 -50
21 -99 11 -140 -30 -43 -43 -52 -93 -28 -142 26 -52 64 -77 116 -77 94 0 151
81 125 175 -6 21 -3 28 13 33 11 3 30 -1 45 -11 37 -24 114 -22 158 4 48 31
81 99 74 154 -11 78 -79 138 -157 138 -32 0 -57 -7 -80 -22z"/>
<path d="M4815 4928 c-33 -19 -44 -41 -45 -84 0 -44 25 -76 69 -87 31 -8 86
15 100 41 43 81 -47 174 -124 130z"/>
<path d="M1869 4861 c-66 -67 -3 -177 90 -156 41 9 71 49 71 95 0 84 -100 122
-161 61z"/>
<path d="M4460 4812 c-18 -19 -30 -41 -30 -57 0 -35 50 -85 85 -85 34 0 85 50
85 84 0 34 -38 75 -77 82 -27 5 -37 1 -63 -24z"/>
<path d="M1665 4786 c-89 -39 -63 -167 34 -172 61 -3 75 -19 60 -75 -15 -57 5
-110 53 -139 40 -24 69 -25 114 -4 48 23 68 65 61 129 -6 60 12 97 38 75 8 -7
25 -10 40 -6 14 4 44 1 66 -5 34 -11 39 -16 35 -34 -8 -32 11 -90 41 -126 89
-106 258 -60 288 78 10 50 -11 107 -54 146 -65 59 -152 62 -215 7 -28 -25 -43
-30 -84 -30 -32 0 -54 5 -62 15 -17 20 -46 19 -62 -3 -7 -9 -24 -25 -39 -34
-21 -14 -28 -14 -50 -2 -13 7 -40 13 -59 14 -57 0 -79 22 -77 75 2 36 -3 49
-23 69 -32 32 -67 39 -105 22z"/>
<path d="M882 4757 c-43 -46 -14 -117 47 -117 32 0 71 39 71 70 0 10 -9 29
-21 44 -26 33 -68 34 -97 3z"/>
<path d="M3173 4745 c-71 -36 -106 -89 -111 -169 -3 -49 0 -71 17 -103 81
-159 308 -153 376 9 43 105 -9 227 -117 272 -54 23 -107 20 -165 -9z"/>
<path d="M4400 4659 c-14 -6 -35 -19 -47 -31 -20 -19 -23 -19 -45 -4 -14 10
-43 16 -75 16 -46 0 -58 -4 -89 -33 -39 -36 -54 -83 -43 -134 6 -29 3 -36 -32
-68 -43 -39 -47 -40 -83 -24 -55 25 -156 -28 -156 -82 0 -22 -26 -34 -91 -44
-42 -6 -45 -5 -59 26 -32 70 -126 86 -189 33 -78 -65 -44 -195 56 -220 60 -15
137 35 150 97 4 23 12 28 66 40 52 11 62 10 66 -2 10 -33 69 -79 101 -79 26 0
33 -5 47 -37 11 -28 12 -41 4 -53 -47 -64 -52 -76 -48 -120 4 -35 12 -51 42
-78 34 -32 41 -34 88 -29 41 3 56 11 78 35 39 43 46 92 22 138 -21 40 -73 74
-114 74 -21 0 -28 7 -37 37 -10 34 -9 39 18 70 38 43 45 73 29 120 -18 50 -19
45 23 82 35 30 39 31 54 17 49 -50 130 -58 183 -19 24 19 25 19 62 -1 36 -20
39 -20 73 -4 24 12 38 27 42 45 4 15 18 41 31 56 28 34 31 101 7 136 -16 23
-71 52 -96 50 -7 0 -24 -5 -38 -10z"/>
<path d="M4927 4660 c-140 -42 -185 -247 -75 -346 56 -52 149 -69 223 -43 28
10 36 9 72 -15 38 -26 41 -30 36 -65 -13 -94 108 -111 140 -20 3 10 22 18 48
22 38 5 47 2 76 -24 31 -27 53 -37 53 -24 0 15 -74 165 -81 165 -9 0 -12 -13
-13 -60 -1 -21 -7 -25 -44 -32 -36 -6 -47 -4 -65 13 -13 12 -33 19 -53 17 -21
-1 -46 8 -73 25 l-41 27 32 44 c112 160 -46 373 -235 316z"/>
<path d="M787 4531 c-85 -56 -83 -161 3 -219 69 -46 163 -9 191 75 16 48 -10
115 -55 143 -41 25 -102 26 -139 1z"/>
<path d="M63 4475 l-33 -14 0 -135 c0 -155 3 -160 91 -160 90 0 150 58 157
151 5 72 -21 117 -88 151 -51 25 -81 27 -127 7z"/>
<path d="M2015 4351 c-75 -33 -91 -144 -26 -190 35 -25 97 -27 130 -5 31 22
52 75 45 113 -12 60 -94 106 -149 82z"/>
<path d="M4370 4337 c-32 -16 -52 -59 -44 -92 8 -32 49 -65 81 -65 33 0 83 51
83 85 0 31 -49 85 -77 85 -10 0 -29 -6 -43 -13z"/>
<path d="M3195 4291 c-62 -27 -91 -110 -61 -170 14 -27 31 -38 93 -67 3 -1
-16 -111 -23 -136 -3 -10 -12 -18 -20 -18 -9 0 -29 -14 -46 -30 -27 -27 -30
-36 -27 -83 1 -28 -1 -60 -6 -70 -10 -24 4 -37 18 -16 9 15 13 15 44 -3 24
-15 43 -19 65 -14 35 7 88 51 88 73 0 10 20 13 74 13 l74 0 6 -32 c15 -80 75
-128 158 -128 155 0 205 209 68 281 -73 39 -159 14 -205 -58 -19 -31 -22 -32
-92 -33 l-71 0 -19 37 c-14 30 -44 55 -81 69 -1 1 3 35 9 76 11 73 12 75 46
87 110 40 85 214 -33 227 -21 2 -48 0 -59 -5z"/>
<path d="M807 4186 c-109 -40 -177 -138 -177 -256 1 -136 92 -246 223 -268
l41 -7 17 -75 18 -75 -28 -22 c-16 -12 -34 -36 -41 -53 -17 -40 -8 -111 18
-147 l20 -29 -53 -71 c-54 -71 -54 -71 -103 -71 -102 0 -172 -70 -172 -173 0
-184 249 -242 329 -76 12 24 21 53 21 65 0 23 8 26 92 37 33 4 56 1 77 -9 51
-27 101 6 101 67 0 29 -39 67 -69 67 -28 0 -71 -42 -71 -70 0 -17 -6 -20 -39
-20 -21 0 -52 -3 -69 -6 -25 -5 -31 -2 -37 15 -3 12 -21 36 -40 54 l-33 32 41
71 41 72 56 -5 c64 -6 105 10 139 53 23 29 34 28 113 -12 l48 -24 -6 -44 c-5
-31 -1 -55 14 -88 50 -113 191 -144 282 -62 66 60 78 152 30 228 -48 79 -167
103 -246 50 l-38 -26 -80 23 -79 24 -13 46 c-15 50 -70 109 -102 109 -36 0
-50 23 -57 90 l-7 65 34 12 c165 61 222 292 104 429 -67 78 -204 115 -299 80z"/>
<path d="M4244 4180 c-47 -19 -69 -93 -43 -142 14 -26 67 -48 101 -41 36 7 68
43 74 85 5 29 1 41 -22 67 -31 33 -76 46 -110 31z"/>
<path d="M1709 4097 c-66 -35 -102 -93 -107 -171 -5 -74 16 -125 72 -174 46
-40 87 -50 213 -50 90 0 106 2 136 22 l33 23 32 -28 c31 -28 31 -29 17 -63
-17 -41 -19 -84 -6 -119 9 -23 5 -28 -46 -62 -54 -36 -55 -36 -88 -21 -44 21
-73 20 -112 -4 -90 -55 -90 -165 0 -220 40 -25 73 -25 116 -2 49 26 74 76 67
132 -5 43 -4 47 32 76 55 45 59 46 87 28 27 -17 34 -54 11 -54 -40 0 -45 -73
-5 -85 37 -12 80 51 49 70 -5 3 -10 15 -10 26 0 16 7 19 43 19 51 0 99 28 128
72 16 26 19 45 16 91 -3 49 -8 62 -37 92 -37 39 -89 58 -129 48 -25 -6 -25 -5
-8 14 36 41 10 103 -45 103 -74 0 -77 -106 -3 -122 18 -4 17 -6 -8 -18 -25
-12 -30 -11 -57 15 -26 25 -29 33 -24 66 8 51 -1 82 -35 121 -15 18 -31 45
-35 60 -9 39 -64 98 -111 119 -57 26 -132 24 -186 -4z"/>
<path d="M4494 4110 c-42 -17 -65 -71 -48 -115 8 -19 55 -45 82 -45 35 0 72
38 72 75 0 47 -8 64 -41 80 -32 17 -36 17 -65 5z"/>
<path d="M2262 4093 c-103 -51 -64 -203 52 -203 133 0 142 192 11 215 -18 3
-43 -1 -63 -12z"/>
<path d="M4684 4078 c-55 -26 -62 -108 -14 -150 94 -85 215 48 125 138 -26 26
-73 31 -111 12z"/>
<path d="M230 4038 c-34 -19 -70 -75 -70 -112 0 -72 76 -135 146 -122 138 26
132 229 -8 243 -24 2 -54 -2 -68 -9z"/>
<path d="M5345 4010 c-51 -25 -75 -65 -75 -125 0 -42 5 -52 39 -86 34 -35 44
-39 87 -39 66 0 107 26 129 83 44 116 -71 223 -180 167z"/>
<path d="M2574 3966 c-3 -13 -4 -32 -2 -43 1 -10 -9 -34 -24 -53 -14 -19 -29
-46 -33 -61 -4 -15 -17 -29 -36 -36 -21 -8 -29 -18 -29 -36 0 -30 23 -51 50
-44 23 6 72 -52 81 -98 4 -16 7 66 8 183 0 116 -1 212 -4 212 -2 0 -7 -11 -11
-24z"/>
<path d="M4888 3952 c-48 -29 -72 -107 -48 -152 8 -15 3 -24 -26 -48 -32 -27
-40 -29 -66 -20 -84 29 -171 -58 -147 -148 14 -52 53 -79 117 -81 l56 -1 29
-51 c28 -49 28 -50 11 -78 -10 -15 -19 -29 -19 -30 -1 -2 -38 4 -83 13 -78 16
-82 18 -92 50 -6 19 -25 43 -41 54 -92 66 -209 5 -209 -109 0 -37 6 -49 39
-82 34 -34 44 -39 86 -39 55 0 97 25 121 73 9 18 18 34 19 35 2 2 37 -4 78
-13 73 -16 74 -17 86 -55 6 -21 26 -51 43 -65 28 -24 39 -27 89 -23 l57 4 12
-36 c10 -31 10 -42 -4 -68 -9 -17 -16 -42 -16 -57 0 -14 -1 -25 -2 -25 -2 0
-56 -11 -122 -24 l-118 -25 -37 39 c-65 68 -160 73 -226 12 -100 -92 -51 -253
83 -278 49 -9 106 11 141 51 29 33 55 100 45 116 -7 12 5 16 127 48 l114 29
33 -31 c28 -27 41 -32 83 -32 45 0 54 4 83 36 28 30 36 34 59 26 21 -7 27 -15
27 -36 0 -56 70 -81 110 -41 27 27 25 62 -3 88 -26 24 -48 27 -78 12 -26 -14
-79 13 -79 41 0 61 -62 113 -131 108 -35 -3 -42 0 -60 30 l-20 33 21 42 c24
50 25 65 6 111 -21 50 -69 77 -127 72 l-47 -4 -31 51 -31 52 22 43 c21 43 21
46 5 90 -16 46 -16 46 10 73 24 26 27 26 54 13 15 -8 46 -15 69 -15 32 0 48 7
78 34 34 31 37 39 37 86 0 47 -3 55 -37 86 -31 28 -46 34 -80 34 -24 0 -55 -8
-70 -18z"/>
<path d="M4315 3901 c-50 -30 -68 -58 -73 -110 -3 -39 0 -58 17 -86 27 -47 20
-58 -35 -49 -84 12 -163 -48 -179 -137 -14 -78 52 -165 134 -176 145 -20 236
152 140 262 -33 37 -32 63 1 45 31 -17 100 -12 135 10 62 38 83 126 45 188
-41 67 -124 91 -185 53z"/>
<path d="M459 3865 c-32 -17 -54 -66 -45 -101 24 -94 160 -100 185 -7 12 43 2
73 -35 102 -31 24 -68 26 -105 6z"/>
<path d="M1363 3823 c-34 -6 -81 -59 -88 -97 -14 -73 49 -146 128 -146 28 0
46 8 73 33 68 62 51 168 -31 203 -35 14 -42 15 -82 7z"/>
<path d="M131 3727 c-102 -35 -104 -181 -3 -224 33 -14 42 -14 78 -1 39 14 42
13 75 -9 19 -13 41 -28 49 -33 12 -7 13 -11 3 -21 -18 -19 -16 -110 3 -137 26
-37 12 -51 -49 -49 -95 2 -167 -63 -167 -150 0 -91 54 -152 140 -161 95 -9
170 58 170 151 0 53 -10 79 -47 118 -30 33 -17 45 30 28 73 -26 168 29 183
105 12 69 -35 146 -102 165 -39 11 -100 -1 -122 -23 -13 -13 -20 -12 -59 16
-33 22 -43 34 -37 46 16 37 16 102 0 127 -33 50 -91 70 -145 52z"/>
<path d="M5221 3674 c-84 -70 -79 -191 9 -251 44 -30 126 -32 163 -3 33 26 34
25 30 -7 -8 -56 57 -93 96 -54 44 44 9 119 -50 107 -27 -5 -28 -4 -19 14 15
27 12 106 -4 138 -29 55 -62 76 -129 80 -57 4 -66 2 -96 -24z"/>
<path d="M575 3665 c-53 -52 -18 -135 56 -135 45 0 79 34 79 79 0 42 -38 81
-80 81 -19 0 -40 -9 -55 -25z"/>
<path d="M5687 3626 c-36 -47 -47 -78 -47 -134 1 -96 67 -180 161 -202 42 -10
109 -7 109 6 0 18 -173 360 -183 362 -8 2 -26 -13 -40 -32z"/>
<path d="M3252 3485 l-53 -24 14 -33 c7 -18 47 -114 88 -213 51 -124 75 -172
77 -155 2 19 15 31 55 50 33 16 62 40 82 68 27 40 30 51 30 121 0 67 -4 83
-27 118 -33 49 -114 93 -172 93 -23 0 -65 -11 -94 -25z"/>
<path d="M2397 3439 c-20 -12 -47 -60 -47 -85 0 -9 -13 -32 -30 -51 -16 -18
-30 -40 -30 -48 0 -19 -8 -19 -26 0 -9 8 -33 15 -54 15 -66 0 -96 -61 -65
-133 7 -16 3 -16 -34 4 -37 19 -47 20 -81 10 -42 -12 -77 -49 -86 -90 -3 -14
-11 -42 -18 -61 -16 -47 -10 -75 21 -100 32 -25 74 -26 104 -1 22 18 23 18 57
-5 73 -50 166 -21 197 59 20 53 10 99 -30 137 -13 13 -22 27 -19 31 8 14 24
10 24 -6 0 -8 12 -29 28 -45 34 -39 93 -50 150 -27 34 14 42 14 58 2 18 -12
17 -14 -15 -32 -48 -25 -81 -59 -81 -81 0 -25 -91 -118 -125 -126 -15 -4 -40
-20 -56 -36 -24 -23 -29 -37 -29 -77 0 -76 47 -123 125 -123 21 0 49 -9 64
-19 32 -23 104 -43 139 -39 20 2 28 -2 30 -17 2 -11 8 -24 13 -30 5 -5 9 155
9 396 l0 404 -25 37 c-14 20 -25 46 -25 58 0 64 -87 112 -143 79z"/>
<path d="M30 3310 c0 -143 2 -147 60 -114 58 35 81 125 46 179 -18 27 -72 65
-93 65 -10 0 -13 -33 -13 -130z"/>
<path d="M5423 3268 c-75 -20 -100 -122 -44 -179 42 -41 107 -41 153 0 63 56
37 156 -47 179 -17 5 -44 5 -62 0z"/>
<path d="M5750 3174 c-34 -24 -47 -44 -54 -77 -13 -62 43 -127 109 -127 93 0
140 110 78 180 -35 40 -96 50 -133 24z"/>
<path d="M4045 3169 c-68 -25 -125 -108 -125 -180 1 -43 37 -107 78 -136 l39
-28 -24 -71 -24 -72 -44 -4 c-56 -7 -99 -38 -121 -88 -16 -35 -24 -42 -80 -60
-82 -26 -86 -26 -107 9 -18 32 -77 85 -84 77 -3 -2 12 -44 32 -93 20 -48 45
-112 56 -141 26 -66 43 -58 37 18 l-4 57 69 23 c38 12 69 20 70 18 26 -50 38
-66 66 -85 91 -61 221 10 221 120 0 43 -12 70 -46 107 l-23 25 26 73 c15 41
31 75 37 77 6 2 28 6 49 10 45 7 105 57 123 102 33 77 4 173 -64 218 -44 29
-114 39 -157 24z"/>
<path d="M5994 3023 c-12 -18 -19 -46 -19 -75 0 -40 5 -53 31 -79 32 -31 105
-51 118 -31 7 12 -89 212 -103 212 -5 0 -17 -12 -27 -27z"/>
<path d="M3529 3015 c-14 -8 -34 -25 -43 -39 -20 -32 -21 -105 -1 -134 11 -14
14 -33 10 -54 -4 -18 -1 -47 6 -63 l12 -30 11 51 c11 49 12 51 36 42 36 -14
93 6 124 43 46 55 28 152 -34 184 -36 19 -87 19 -121 0z"/>
<path d="M1208 2860 c-101 -55 -111 -204 -16 -271 48 -35 133 -38 177 -7 73
50 96 116 66 193 -34 90 -143 131 -227 85z"/>
<path d="M243 2850 c-104 -47 -122 -183 -35 -262 149 -135 360 79 224 226 -53
57 -117 69 -189 36z"/>
<path d="M5668 2850 c-95 -29 -148 -144 -104 -228 14 -26 12 -31 -31 -99 -44
-69 -46 -71 -74 -61 -98 34 -201 -77 -155 -166 9 -17 21 -38 28 -48 9 -13 6
-25 -19 -63 -27 -42 -36 -48 -69 -50 -79 -5 -108 -90 -48 -142 34 -31 70 -29
105 6 33 33 36 60 13 100 -15 26 -14 29 13 74 27 46 30 47 65 42 42 -6 83 7
115 37 20 19 23 19 46 3 14 -9 27 -25 30 -35 3 -11 12 -20 20 -20 32 0 27 21
-12 58 -32 31 -41 46 -41 73 0 19 -9 51 -20 71 l-19 36 41 59 c22 32 42 60 44
62 2 2 19 -4 38 -13 78 -37 175 -12 216 56 43 71 37 139 -17 198 -46 52 -103
69 -165 50z"/>
<path d="M1904 2760 c-21 -8 -74 -65 -74 -79 0 -4 -22 -14 -49 -23 -48 -15
-49 -15 -61 7 -33 62 -128 71 -182 17 -57 -56 -45 -146 23 -186 28 -16 29 -20
29 -91 l0 -75 -34 -14 c-45 -19 -66 -52 -66 -102 0 -52 28 -90 78 -103 48 -14
100 11 126 60 25 45 16 82 -30 125 -32 31 -34 36 -34 103 l0 71 41 21 c29 15
46 32 58 60 13 32 23 41 56 50 29 8 40 8 43 0 2 -7 15 -25 28 -41 77 -91 224
-37 224 82 0 86 -96 151 -176 118z"/>
<path d="M4252 2744 c-33 -23 -30 -76 5 -104 67 -53 153 40 93 100 -24 24 -67
26 -98 4z"/>
<path d="M6119 2731 c-21 -22 -29 -39 -29 -66 0 -70 90 -122 143 -82 15 11 13
19 -23 95 -21 45 -44 82 -50 82 -6 0 -25 -13 -41 -29z"/>
<path d="M734 2696 c-91 -40 -109 -159 -34 -231 23 -22 41 -29 82 -32 88 -7
149 46 150 131 2 106 -100 174 -198 132z"/>
<path d="M4725 2536 c-97 -43 -119 -162 -42 -232 46 -42 95 -50 151 -25 113
50 111 209 -4 255 -48 19 -65 19 -105 2z"/>
<path d="M6013 2505 c-34 -15 -58 -45 -68 -87 -4 -16 -11 -25 -17 -22 -18 11
-77 -7 -107 -32 -36 -30 -55 -83 -47 -129 8 -42 56 -91 97 -100 l31 -7 -25
-26 c-51 -56 -60 -105 -28 -158 l19 -31 -31 -102 c-31 -100 -31 -101 -62 -101
-52 0 -116 -40 -142 -90 -28 -53 -29 -94 -3 -145 l20 -40 -42 -42 c-42 -41
-44 -42 -79 -32 -74 23 -149 -48 -135 -126 9 -45 57 -85 102 -85 78 0 122 53
111 133 -6 39 -3 45 35 84 41 42 41 42 71 26 39 -20 119 -13 155 14 47 35 72
81 72 135 0 55 -10 80 -48 120 l-25 28 18 95 19 96 38 -6 c108 -19 193 99 143
196 -18 33 -69 69 -100 69 -18 0 -18 1 3 16 28 19 52 65 52 99 0 22 4 25 36
25 54 0 104 53 104 109 0 56 -22 95 -64 115 -41 19 -61 20 -103 1z"/>
<path d="M2373 2481 c-17 -11 -35 -26 -40 -34 -13 -22 -78 -31 -93 -12 -16 19
-50 19 -78 -1 -31 -22 -30 -78 2 -99 14 -9 27 -30 30 -50 15 -78 114 -119 181
-75 56 37 60 39 89 45 17 4 44 22 62 40 24 26 33 31 38 20 12 -33 26 -12 26
40 0 50 -12 73 -23 43 -2 -7 -11 4 -20 24 -29 68 -114 97 -174 59z"/>
<path d="M4332 2479 c-74 -37 -113 -120 -93 -197 13 -46 61 -107 92 -117 17
-6 13 -10 -23 -28 -24 -12 -49 -33 -55 -47 -30 -60 -5 -137 53 -165 43 -20 72
-19 111 5 70 42 80 126 23 185 l-32 33 34 4 c18 3 40 8 48 12 12 5 29 -19 72
-101 l56 -108 -30 -36 c-19 -24 -33 -56 -41 -97 l-11 -61 -43 -7 c-34 -5 -47
-2 -69 15 -34 26 -68 27 -94 1 -23 -23 -26 -76 -6 -99 13 -14 12 -22 -6 -63
-11 -27 -27 -48 -35 -48 -27 0 -74 -31 -93 -63 -66 -108 58 -240 171 -182 41
22 69 71 69 122 0 33 -7 50 -31 78 -17 19 -38 35 -46 35 -13 0 -14 8 -9 42 9
53 12 58 40 58 23 0 48 22 59 52 5 15 62 38 93 38 6 0 17 -13 24 -30 12 -29
75 -93 100 -102 8 -2 10 -17 5 -51 -6 -38 -11 -47 -27 -47 -11 0 -36 -16 -55
-35 -32 -32 -35 -40 -30 -76 6 -48 28 -74 72 -89 38 -13 101 7 111 35 8 20 14
19 47 -10 27 -24 27 -26 12 -54 -8 -17 -15 -50 -15 -75 0 -85 85 -149 167
-127 121 33 140 202 29 255 -40 19 -71 20 -114 5 -27 -9 -37 -8 -66 10 -27 17
-34 29 -39 64 -4 30 -14 50 -37 69 -27 25 -30 32 -24 67 l6 39 63 4 c173 11
253 204 139 337 -46 53 -106 76 -182 68 l-57 -6 -66 102 -67 102 19 24 c65 83
33 213 -64 260 -55 27 -101 27 -155 0z"/>
<path d="M271 2372 c-127 -64 -87 -252 53 -252 139 0 187 181 67 248 -47 27
-75 28 -120 4z"/>
<path d="M4986 2348 c-38 -34 -42 -67 -13 -110 14 -20 28 -45 32 -57 3 -11 20
-32 36 -46 82 -68 206 15 178 120 -10 34 -52 75 -77 75 -9 0 -32 9 -50 20 -42
26 -75 25 -106 -2z"/>
<path d="M974 2331 c-47 -28 -77 -77 -82 -132 l-5 -49 -72 -40 -73 -41 -38 26
c-42 29 -73 31 -118 10 -41 -20 -66 -63 -66 -115 0 -34 6 -48 34 -76 28 -28
42 -34 75 -34 23 0 55 7 70 15 34 17 65 77 58 112 -4 22 4 31 63 69 38 24 72
44 77 44 5 0 16 -13 26 -29 20 -34 90 -71 133 -71 17 0 51 10 77 23 l46 24 42
-37 c41 -35 43 -40 40 -84 -2 -42 1 -50 32 -81 57 -57 136 -45 172 25 19 37
19 63 0 100 -27 53 -94 74 -147 46 -25 -13 -28 -12 -66 28 l-40 41 5 65 c4 57
2 69 -19 100 -53 77 -152 105 -224 61z"/>
<path d="M1927 2308 c-47 -28 -82 -95 -74 -144 5 -31 4 -33 -13 -24 -33 18
-68 12 -86 -15 -32 -49 11 -106 69 -92 27 7 50 49 40 74 -4 9 10 -2 31 -25
l38 -42 -42 -67 c-24 -38 -44 -69 -45 -71 -1 -1 -19 5 -41 14 -59 25 -143 15
-197 -22 -160 -113 -99 -361 95 -381 177 -18 294 176 195 326 l-25 38 46 77
c46 74 48 76 87 76 87 0 155 65 155 149 0 120 -127 190 -233 129z"/>
<path d="M6358 2294 c-36 -19 -58 -63 -58 -115 0 -35 6 -48 39 -80 30 -30 46
-39 72 -39 51 0 79 11 78 29 0 9 -23 62 -52 118 l-52 101 -27 -14z"/>
<path d="M2517 2136 c-107 -39 -187 -152 -187 -266 0 -95 66 -206 149 -250
l36 -19 -34 -1 c-53 0 -119 -37 -149 -83 -38 -57 -38 -137 1 -196 48 -72 147
-101 223 -65 l34 16 0 148 c0 143 -1 147 -22 158 l-23 11 23 0 22 1 0 280 c0
313 5 294 -73 266z"/>
<path d="M5570 2082 c-20 -11 -43 -34 -54 -56 -54 -109 89 -219 183 -140 69
58 57 160 -24 198 -43 21 -62 20 -105 -2z"/>
<path d="M3784 2035 c90 -224 210 -512 215 -518 4 -4 28 6 54 23 91 57 142
179 118 284 -23 103 -103 192 -194 217 -48 13 -199 8 -193 -6z"/>
<path d="M5319 1871 c-21 -22 -29 -39 -29 -66 0 -45 45 -95 85 -95 34 0 82 25
95 49 32 62 -15 141 -85 141 -27 0 -44 -8 -66 -29z"/>
<path d="M231 1873 c-42 -21 -76 -89 -66 -134 10 -43 51 -87 95 -100 33 -10
44 -9 83 10 72 35 97 112 57 178 -36 60 -104 78 -169 46z"/>
<path d="M30 1740 c0 -136 1 -140 19 -130 49 26 78 107 61 170 -11 39 -54 100
-71 100 -5 0 -9 -63 -9 -140z"/>
<path d="M779 1855 c-33 -18 -53 -64 -44 -104 15 -68 111 -96 160 -46 14 13
25 33 25 43 0 20 25 32 70 32 24 0 25 -3 22 -43 -3 -35 1 -49 23 -75 56 -66
151 -61 195 10 26 43 25 87 -3 129 -32 48 -83 64 -141 44 -24 -8 -70 -19 -103
-23 -57 -8 -62 -7 -92 20 -35 31 -71 35 -112 13z"/>
<path d="M5108 1794 c-57 -30 -65 -98 -19 -145 40 -39 82 -39 122 0 47 48 38
116 -21 146 -36 18 -47 18 -82 -1z"/>
<path d="M6189 1774 c-64 -19 -140 -90 -169 -156 -49 -113 -21 -239 72 -323
90 -80 202 -95 314 -40 62 30 98 69 132 144 21 45 24 64 20 121 -14 188 -190
310 -369 254z"/>
<path d="M564 1690 c-52 -21 -70 -89 -34 -128 44 -47 111 -36 138 22 18 36 1
81 -39 101 -32 17 -36 17 -65 5z"/>
<path d="M879 1611 c-50 -51 -32 -129 35 -151 75 -24 140 46 114 121 -21 61
-102 77 -149 30z"/>
<path d="M5258 1614 c-35 -18 -58 -62 -58 -109 0 -26 9 -45 34 -73 31 -33 39
-37 85 -37 43 0 55 5 82 31 100 101 -18 256 -143 188z"/>
<path d="M391 1567 c-47 -24 -75 -81 -88 -179 -4 -30 0 -42 21 -62 14 -15 34
-26 45 -26 25 0 71 20 71 31 0 5 18 18 40 29 90 46 93 169 5 206 -42 17 -63
17 -94 1z"/>
<path d="M1424 1489 c-18 -5 -46 -25 -63 -44 -25 -29 -31 -44 -31 -83 0 -86
56 -142 142 -142 l43 0 54 -90 53 -90 -32 -37 c-137 -155 -74 -394 118 -449
100 -29 189 -8 265 65 64 60 82 104 82 197 l0 82 55 12 c30 7 60 15 67 17 6 2
19 -12 28 -31 49 -103 189 -112 252 -17 44 66 21 158 -49 201 -80 49 -190 1
-213 -93 -7 -28 -9 -29 -99 -48 -53 -11 -59 -11 -68 5 -61 109 -196 165 -313
131 -31 -9 -58 -15 -60 -13 -1 2 -27 41 -58 87 l-56 84 25 29 c66 80 31 201
-65 228 -41 11 -36 11 -77 -1z"/>
<path d="M30 1353 c0 -67 6 -127 15 -158 14 -44 14 -50 0 -58 -13 -7 -15 -38
-15 -192 l0 -183 31 -11 c46 -16 125 -13 162 5 84 43 135 133 123 218 -11 69
-57 133 -119 161 -29 14 -71 25 -94 25 -41 0 -43 1 -53 40 -10 37 -9 44 14 70
34 41 41 82 21 123 -14 29 -28 41 -77 65 -5 2 -8 -45 -8 -105z"/>
<path d="M1884 1416 c-30 -30 -34 -40 -34 -86 0 -46 4 -56 34 -86 30 -30 40
-34 86 -34 46 0 56 4 86 34 30 30 34 40 34 86 0 46 -4 56 -34 86 -30 30 -40
34 -86 34 -46 0 -56 -4 -86 -34z"/>
<path d="M815 1332 c-131 -63 -165 -220 -71 -328 l34 -39 -29 -57 c-27 -54
-32 -58 -65 -58 -27 0 -44 -8 -69 -33 -55 -55 -58 -108 -9 -166 45 -54 125
-54 176 1 23 25 28 39 28 80 0 42 -5 54 -31 81 l-32 31 29 53 c27 50 31 53 58
47 50 -11 114 -6 152 12 37 18 104 89 104 111 0 8 13 14 35 15 19 0 40 1 47 2
6 1 15 -13 20 -31 19 -73 110 -97 169 -45 70 62 24 172 -72 172 -32 0 -47 -7
-71 -30 -21 -21 -44 -33 -74 -37 l-44 -6 0 50 c0 60 -40 129 -94 162 -51 32
-139 38 -191 13z"/>
<path d="M6663 1325 c-49 -21 -75 -69 -70 -129 11 -124 164 -161 234 -57 44
65 18 157 -52 187 -43 17 -71 17 -112 -1z"/>
<path d="M4258 1196 c-46 -17 -87 -43 -94 -60 -4 -11 165 -441 194 -492 9 -16
10 -16 16 3 4 14 22 25 52 33 63 18 124 68 159 131 26 47 30 64 29 129 0 56
-6 85 -21 115 -66 124 -211 185 -335 141z"/>
<path d="M5952 1203 c-7 -3 -19 -18 -27 -34 -20 -38 -90 -85 -107 -72 -25 20
-68 23 -102 9 -58 -24 -83 -100 -52 -156 13 -22 12 -28 -6 -52 -10 -16 -28
-28 -38 -28 -32 0 -51 -12 -61 -36 -12 -34 8 -74 42 -81 l27 -5 -33 -29 c-44
-39 -59 -78 -53 -140 13 -127 166 -177 255 -83 94 100 23 259 -114 256 -40 0
-41 0 -22 19 21 21 24 46 10 68 -7 10 -4 23 9 40 16 23 24 26 76 24 59 -1 59
-2 111 -60 32 -36 48 -62 42 -67 -13 -14 -11 -50 3 -64 18 -18 42 -15 62 7 14
15 15 24 7 40 -6 11 -17 24 -25 28 -7 4 -34 38 -60 75 -46 66 -46 66 -34 112
9 35 9 50 -1 72 -11 25 -10 30 6 42 40 30 50 32 68 12 36 -40 115 -11 115 40
0 43 -57 80 -98 63z"/>
<path d="M5164 1112 c-150 -71 -160 -285 -16 -369 108 -64 251 -18 300 97 37
89 5 198 -76 254 -55 39 -146 47 -208 18z"/>
<path d="M6084 1055 c-82 -42 -85 -168 -4 -210 88 -46 190 22 177 118 -11 81
-101 129 -173 92z"/>
<path d="M6761 989 c-205 -41 -289 -293 -148 -446 63 -69 107 -88 202 -88 95
0 139 19 202 88 43 47 73 122 73 183 0 47 -34 132 -70 176 -56 67 -168 106
-259 87z"/>
<path d="M1243 845 c-43 -19 -73 -69 -73 -124 0 -37 6 -49 39 -82 35 -35 44
-39 88 -39 137 0 183 177 62 242 -40 21 -72 22 -116 3z"/>
<path d="M950 818 c-26 -28 -25 -48 1 -82 28 -36 83 -33 112 5 49 67 -55 139
-113 77z"/>
<path d="M4800 827 c-45 -16 -80 -68 -80 -120 0 -32 7 -46 39 -78 32 -32 46
-39 77 -39 51 0 83 18 111 59 42 62 19 140 -51 172 -48 22 -50 22 -96 6z"/>
<path d="M6088 725 c-20 -11 -34 -12 -53 -5 -37 14 -45 12 -14 -5 26 -14 26
-15 12 -57 -12 -36 -12 -50 -1 -83 23 -70 111 -106 178 -72 34 17 70 74 70
112 0 38 -36 95 -70 112 -33 17 -89 16 -122 -2z"/>
<path d="M2260 673 c-36 -15 -72 -48 -90 -83 -59 -115 33 -249 162 -237 153
13 201 207 75 301 -26 20 -117 32 -147 19z"/>
<path d="M37 613 c-4 -3 -7 -60 -7 -125 l0 -118 30 0 c97 0 158 120 98 195
-30 38 -102 67 -121 48z"/>
<path d="M5324 570 c-11 -4 -33 -23 -48 -41 -23 -27 -27 -40 -24 -81 l3 -49
-109 -50 -109 -49 -26 24 c-39 36 -69 48 -121 49 -160 2 -240 -196 -124 -305
124 -115 322 -13 300 154 l-7 48 108 54 c108 54 108 54 132 35 13 -10 31 -19
41 -19 20 0 26 -12 35 -82 5 -35 3 -52 -9 -70 -21 -30 -20 -61 2 -89 39 -48
122 -16 122 48 0 31 -42 73 -75 73 -24 0 -25 3 -25 58 0 57 1 59 36 75 59 29
80 105 44 164 -32 53 -93 75 -146 53z"/>
<path d="M875 546 c-94 -43 -165 -153 -165 -253 0 -46 -24 -43 -50 6 -79 155
-308 117 -336 -55 -12 -76 27 -149 97 -184 102 -53 225 4 254 117 17 65 35 65
64 -2 25 -59 83 -118 137 -141 54 -23 198 -19 251 7 54 26 109 89 131 151 l17
48 100 -6 c139 -7 145 -9 145 -42 0 -45 34 -88 84 -107 44 -17 48 -17 91 0 99
37 120 154 39 224 -29 26 -43 31 -86 31 -46 0 -54 -4 -91 -41 l-40 -40 -118 7
-117 7 -6 46 c-14 102 -79 190 -170 232 -61 28 -167 25 -231 -5z"/>
<path d="M4422 522 c-9 -6 0 -39 40 -135 28 -70 56 -126 62 -124 26 8 56 71
56 116 0 61 -29 107 -83 131 -47 22 -56 23 -75 12z"/>
<path d="M6418 464 c-57 -30 -79 -131 -40 -183 10 -14 36 -35 57 -45 32 -16
45 -17 77 -9 51 14 69 -5 40 -42 -30 -38 -45 -91 -38 -131 l7 -34 148 0 c165
0 161 -2 161 68 l0 37 19 -31 c37 -60 127 -81 189 -44 157 96 31 332 -135 253
-41 -19 -71 -62 -79 -113 l-6 -36 -37 37 c-43 43 -95 57 -153 42 -51 -14 -69
5 -40 42 44 56 36 133 -19 180 -36 29 -106 34 -151 9z"/>
<path d="M6108 345 c-78 -44 -75 -170 4 -211 93 -48 208 50 168 145 -28 68
-112 100 -172 66z"/>
<path d="M2539 257 c-82 -55 -65 -183 29 -212 22 -6 22 -6 22 114 0 67 -4 121
-9 121 -4 0 -23 -10 -42 -23z"/>
<path d="M5778 264 c-75 -40 -74 -162 1 -207 48 -28 105 -22 146 15 85 79 33
209 -82 208 -21 -1 -50 -7 -65 -16z"/>
<path d="M1969 232 c-38 -34 -50 -102 -26 -149 17 -32 70 -63 109 -63 53 0
118 66 118 120 0 36 -31 90 -61 105 -47 25 -104 19 -140 -13z"/>
<path d="M7344 191 c-17 -10 -40 -31 -52 -46 -24 -31 -46 -100 -37 -115 6 -10
225 -14 225 -4 0 18 -85 184 -94 184 -6 0 -25 -9 -42 -19z"/>
<path d="M2278 125 c-32 -18 -48 -44 -48 -79 l0 -26 95 0 95 0 0 29 c0 66 -83
109 -142 76z"/>
</g>
</svg>
