<svg id="Layer_1" data-name="Layer 1" xmlns="http://www.w3.org/2000/svg" xmlns:xlink="http://www.w3.org/1999/xlink" viewBox="0 0 350 350"><defs><style>.cls-1{fill:url(#linear-gradient);}.cls-2{fill:url(#linear-gradient-2);}.cls-3{fill:#010101;}.cls-4{fill:url(#linear-gradient-3);}</style><linearGradient id="linear-gradient" x1="159.58" y1="284.76" x2="133.06" y2="538.18" gradientUnits="userSpaceOnUse"><stop offset="0.02" stop-color="#ed1c24"/><stop offset="1" stop-color="#be1e2d"/></linearGradient><linearGradient id="linear-gradient-2" x1="125.92" y1="256.36" x2="125.92" y2="292.29" xlink:href="#linear-gradient"/><linearGradient id="linear-gradient-3" x1="67.84" y1="249.96" x2="67.84" y2="297.09" xlink:href="#linear-gradient"/></defs><title>Payfast Final Stacked Logo_Payfast Coins copy</title><path class="cls-1" d="M233.29,171.52A109.47,109.47,0,0,1,213,181a95.64,95.64,0,0,1-24,6c-3.5.58-7.06,1.07-10.7,1.44h-.12c-33.66,2.87-62.41-4.37-78.85-19.84-.15-.11-.27-.29-.41-.4,0,.6-.08,1.22-.11,1.85a28.67,28.67,0,0,0,7.23,18.7c13.35,15.31,39,23.66,68.85,24.13,19.88.13,38-3.6,51.89-10.29,6.92-3.39,12.85-7.5,17.37-12.66a28.72,28.72,0,0,0,7.54-18.6,27,27,0,0,0-3-12.44A69.23,69.23,0,0,1,233.29,171.52ZM174.6,150.36c-31.47,2.4-58.57-3.47-75.42-16.9a29.3,29.3,0,0,0,7.15,17c13.33,15.33,39,23.65,68.84,24.13,19.88.13,38-3.61,51.87-10.31,6.91-3.36,12.89-7.48,17.38-12.65s7.49-11.54,7.52-18.59a27.36,27.36,0,0,0-4.54-15.09C243,123.66,224.43,146.54,174.6,150.36Zm.91-14.17c19.89.12,38-3.62,51.86-10.3,6.92-3.39,12.88-7.5,17.39-12.66a28.48,28.48,0,0,0,7.52-18.57,28.57,28.57,0,0,0-7.2-18.7c-13.36-15.34-39-23.64-68.86-24.12-19.89-.15-38,3.58-51.86,10.25-6.95,3.41-12.88,7.52-17.39,12.66a28.85,28.85,0,0,0-7.56,18.59A28.85,28.85,0,0,0,106.66,112C120,127.37,145.69,135.69,175.51,136.18ZM117.42,78.28c7.24-8.83,29.78-17.47,56.13-17,17.61.11,33.43,3.86,44.09,9.32,5.37,2.68,9.37,5.75,11.76,8.65s3.2,5.3,3.2,7.51-.87,4.59-3.32,7.47c-7.23,8.85-29.77,17.47-56.15,17-17.6-.13-33.4-3.88-44.07-9.31a38,38,0,0,1-11.77-8.65c-2.4-2.94-3.2-5.3-3.2-7.54S115,81.14,117.42,78.28Z"/><path class="cls-2" d="M122,255.72c-2.07-2.37-5-3.56-8.75-3.56H96l-1.28,6.51H112a5.11,5.11,0,0,1,4.24,1.89,5.47,5.47,0,0,1,1,4.63l-.25,1.12-.09.77H100.9a16,16,0,0,0-10.25,3.69,15.5,15.5,0,0,0-5.7,9.34l-.17.69q-1.2,5.65,1.84,9.34t8.7,3.68h22.54l6.09-29Q125.07,259.28,122,255.72Zm-9.35,31.59H96.7a5.37,5.37,0,0,1-4.33-1.88,5.12,5.12,0,0,1-1-4.62l.17-.69a7.59,7.59,0,0,1,2.87-4.63,8,8,0,0,1,5.1-1.88h15.86Zm48.07-35.15-7.29,35.06H137a5.36,5.36,0,0,1-4.33-1.89,5.12,5.12,0,0,1-1-4.63l5.91-28.55H131l-5.91,28.55c-.8,3.77-.16,6.88,1.89,9.34s5,3.69,8.74,3.69h16.55l-.52,2.39a8.19,8.19,0,0,1-3,4.59,7.82,7.82,0,0,1-5,1.93H121.19l-1.37,6.51h22.54a15.63,15.63,0,0,0,10.11-3.77,16.15,16.15,0,0,0,5.83-9.26l9.09-44Z"/><path class="cls-3" d="M230,293.82H207.41q-5.66,0-8.7-3.68t-1.84-9.34l.17-.69a15.49,15.49,0,0,1,5.7-9.34A16,16,0,0,1,213,267.08h15.94l.09-.77.26-1.12a5.47,5.47,0,0,0-1-4.63,5.12,5.12,0,0,0-4.24-1.89H205.49l1.28-6.51h18.55q5.66,0,8.74,3.56c2.06,2.37,2.71,5.42,2,9.13Zm-5.23-6.51,2.74-13.71H211.61a8,8,0,0,0-5.09,1.88,7.6,7.6,0,0,0-2.87,4.63l-.17.69a5.12,5.12,0,0,0,1,4.63,5.38,5.38,0,0,0,4.33,1.88Z"/><path class="cls-3" d="M273.19,282.68a13,13,0,0,1-5.74,8.48,17.06,17.06,0,0,1-9.78,2.83H235.39l1.38-6.51H259q6.6,0,7.54-4.8l.34-1.54q1-4.8-5.57-4.8h-10c-3.72,0-6.57-.94-8.57-2.83q-3.43-3.08-2.31-8.49l.34-1.54a13,13,0,0,1,5.74-8.49,17.08,17.08,0,0,1,9.77-2.83h22.37l-1.28,6.51H255q-6.6,0-7.63,4.8l-.34,1.54q-.95,4.8,5.66,4.8h10q5.58,0,8.57,2.83,3.34,3.08,2.23,8.49Z"/><path class="cls-3" d="M303.31,293.74H292.86q-5.66,0-8.75-3.69t-1.88-9.34l4.63-22.38h-4.11l1.45-6.68h4.11l3.09-14.91h6.69L295,251.65h13.88l-1.45,6.68H293.54l-4.63,22.38a5.12,5.12,0,0,0,5.23,6.51H304.6Z"/><path class="cls-4" d="M92,256a15.46,15.46,0,0,1-5.7,9.13,15.63,15.63,0,0,1-10,3.71H53.83l-5.16,25H42.17l11.75-56.46h29a10.21,10.21,0,0,1,8.41,3.72,10.53,10.53,0,0,1,1.9,9.13Zm-6.51,0,1.19-5.75a5,5,0,0,0-5.15-6.42H59.07l-3.89,18.59H77.67a7.73,7.73,0,0,0,5-1.86A7.93,7.93,0,0,0,85.52,256Z"/><path class="cls-3" d="M218.51,243.27H191.21a8.63,8.63,0,0,0-8.09,6.53l-2.55,12.48h17l-1.38,6.62h-17l-5.27,25H167.4l9.11-44.1a16.67,16.67,0,0,1,16.07-13.07h27.31Z"/></svg>